<svg width="28" height="28" viewBox="0 0 28 28" fill="none" xmlns="http://www.w3.org/2000/svg">
<path d="M22.7625 5.82238C22.0391 4.09558 20.8214 2.62102 19.2624 1.58398C17.7034 0.546932 15.8726 -0.00634766 14 -0.00634766C12.1274 -0.00634766 10.2966 0.546932 8.73762 1.58398C7.17861 2.62102 5.96091 4.09558 5.23752 5.82238C3.67528 6.53627 2.3511 7.68389 1.42257 9.12866C0.494046 10.5734 0.000275939 12.2545 2.91271e-05 13.9718C-0.0124708 18.7457 4.00002 22.8698 8.76751 22.9948C10.2339 23.0302 11.6868 22.7071 13 22.0537V26.9939C13 27.259 13.1054 27.5133 13.2929 27.7008C13.4804 27.8883 13.7348 27.9937 14 27.9937C14.2652 27.9937 14.5196 27.8883 14.7071 27.7008C14.8946 27.5133 15 27.259 15 26.9939V22.0537C16.2432 22.6709 17.612 22.9929 19 22.9948H19.2275C24 22.8698 28.0137 18.7457 28 13.9718C27.9997 12.2545 27.5059 10.5734 26.5774 9.12866C25.6489 7.68389 24.3247 6.53627 22.7625 5.82238ZM19.1812 20.9952C17.69 21.0341 16.2252 20.5963 15 19.7455V14.6217L20.4475 11.8998C20.565 11.841 20.6698 11.7597 20.7559 11.6604C20.842 11.5612 20.9077 11.446 20.9493 11.3213C20.9908 11.1967 21.0074 11.0651 20.9981 10.9341C20.9888 10.803 20.9537 10.6751 20.895 10.5576C20.8362 10.4401 20.7549 10.3353 20.6556 10.2492C20.5563 10.1631 20.4411 10.0974 20.3164 10.0559C20.1918 10.0143 20.0601 9.99776 19.929 10.0071C19.798 10.0164 19.67 10.0514 19.5525 10.1102L15 12.3797V8.99792C15 8.73276 14.8946 8.47847 14.7071 8.29097C14.5196 8.10348 14.2652 7.99815 14 7.99815C13.7348 7.99815 13.4804 8.10348 13.2929 8.29097C13.1054 8.47847 13 8.73276 13 8.99792V15.379L8.44751 13.102C8.21014 12.9833 7.93535 12.9638 7.68358 13.0477C7.43181 13.1316 7.2237 13.3121 7.10501 13.5494C6.98633 13.7867 6.9668 14.0614 7.05072 14.3132C7.13464 14.5649 7.31514 14.7729 7.55251 14.8916L13 17.6135V19.738C11.7751 20.5894 10.3101 21.0273 8.81876 20.9877C5.11252 20.899 1.99002 17.686 2.00002 13.9768C1.99908 12.5818 2.41684 11.2187 3.19926 10.0637C3.98168 8.90871 5.09276 8.01502 6.38876 7.49826C6.51878 7.44606 6.63636 7.36714 6.73391 7.2666C6.83146 7.16606 6.90679 7.04615 6.95501 6.91464C7.48249 5.47045 8.44125 4.22328 9.70141 3.34209C10.9616 2.4609 12.4622 1.98829 14 1.98829C15.5378 1.98829 17.0384 2.4609 18.2986 3.34209C19.5587 4.22328 20.5175 5.47045 21.045 6.91464C21.0932 7.04615 21.1685 7.16606 21.2661 7.2666C21.3636 7.36714 21.4812 7.44606 21.6112 7.49826C22.907 8.01531 24.0179 8.90906 24.8003 10.064C25.5827 11.2189 26.0006 12.5819 26 13.9768C26.01 17.686 22.8875 20.899 19.1812 20.9952Z" fill="#343330"/>
</svg>
